<svg width="42" height="42" viewBox="0 0 42 42" fill="none" xmlns="http://www.w3.org/2000/svg">
<rect x="0.5" y="0.5" width="41" height="41" rx="20.5" stroke="white"/>
<path d="M16.1464 25.8536C15.8535 25.5607 15.8535 25.0858 16.1464 24.7929L24.6465 16.2929C24.9394 16 25.4142 16 25.7071 16.2929C26 16.5858 26 17.0607 25.7071 17.3536L17.2071 25.8536C16.9142 26.1465 16.4393 26.1465 16.1464 25.8536Z" fill="white"/>
<path d="M15.4268 16.8232C15.4268 16.409 15.7625 16.0732 16.1768 16.0732L25.1768 16.0732C25.591 16.0732 25.9268 16.409 25.9268 16.8232L25.9268 25.8232C25.9268 26.2375 25.591 26.5732 25.1768 26.5732C24.7625 26.5732 24.4268 26.2375 24.4268 25.8232L24.4268 17.5732L16.1768 17.5732C15.7625 17.5732 15.4268 17.2375 15.4268 16.8232Z" fill="white"/>
</svg>
