<svg width="136" height="136" viewBox="0 0 136 136" fill="none" xmlns="http://www.w3.org/2000/svg">
<circle cx="68" cy="68" r="68" fill="#BEF746"/>
<path fill-rule="evenodd" clip-rule="evenodd" d="M84.3381 78.3076C84.1757 78.1391 84.0822 77.9083 84.0952 77.6561L85.7299 49.8142L57.8442 50.4437C57.3677 50.4532 56.9692 50.0768 56.9597 49.6003C56.9503 49.1239 57.3266 48.7254 57.8031 48.7159L86.6238 48.0662C86.8636 48.0599 87.0963 48.1563 87.263 48.3291C87.4296 48.5018 87.5176 48.7378 87.5027 48.9773L85.8162 77.7549C85.7897 78.2308 85.381 78.5958 84.9021 78.5659C84.6858 78.5578 84.486 78.4609 84.3381 78.3076Z" fill="black"/>
<path fill-rule="evenodd" clip-rule="evenodd" d="M47.4723 86.7212C47.1401 86.3768 47.1499 85.8317 47.4942 85.4995L86.0344 48.3208C86.3788 47.9886 86.9239 47.9984 87.2561 48.3428C87.5883 48.6872 87.5785 49.2322 87.2341 49.5645L48.694 86.7432C48.3496 87.0754 47.8045 87.0656 47.4723 86.7212Z" fill="black"/>
</svg>
