<svg width="34" height="34" viewBox="0 0 34 34" fill="none" xmlns="http://www.w3.org/2000/svg">
<g clip-path="url(#clip0_6361_1029)">
<path d="M29.0417 28.3335C28.9255 28.3335 28.8093 28.3137 28.6988 28.2768L0.719654 18.7143C0.31732 18.5755 0.0368204 18.2128 0.00282039 17.7893C-0.0283463 17.3657 0.19407 16.9633 0.569487 16.7664L32.4445 0.120584C32.8001 -0.0621658 33.2293 -0.0338324 33.5523 0.197084C33.8782 0.429418 34.0467 0.823251 33.9887 1.21992L30.0928 27.4283C30.0461 27.7399 29.8633 28.0148 29.5927 28.1791C29.4256 28.2811 29.2343 28.3335 29.0417 28.3335ZM3.74849 17.5031L28.1775 25.8529L31.5789 2.97092L3.74849 17.5031Z" fill="#BEF746"/>
<path d="M13.4583 32.5833C13.3478 32.5833 13.2359 32.5663 13.1282 32.5309C12.6905 32.3864 12.3958 31.9798 12.3958 31.5208V21.9583C12.3958 21.6906 12.4978 21.4299 12.6806 21.233L32.1597 0.337157C32.5592 -0.0935097 33.235 -0.11476 33.6628 0.28474C34.0921 0.68424 34.1147 1.35716 33.7152 1.78782L14.5208 22.3762V28.2809L18.0667 23.4543C18.4138 22.984 19.0797 22.8792 19.5528 23.2277C20.026 23.5747 20.1266 24.2406 19.7795 24.7137L14.3154 32.1512C14.11 32.4275 13.7898 32.5833 13.4583 32.5833Z" fill="#BEF746"/>
</g>
<defs>
<clipPath id="clip0_6361_1029">
<rect width="34" height="34" fill="white"/>
</clipPath>
</defs>
</svg>
