<svg width="42" height="42" viewBox="0 0 42 42" fill="none" xmlns="http://www.w3.org/2000/svg">
<rect width="42" height="42" rx="21" fill="#BEF746"/>
<path d="M21 12C17.6917 12 15 14.6917 15 18C15 18.9932 15.2483 19.9779 15.7204 20.8513L20.6719 29.8066C20.7378 29.926 20.8634 30 21 30C21.1366 30 21.2622 29.926 21.3281 29.8066L26.2815 20.8484C26.7517 19.9779 27 18.9931 27 18C27 14.6917 24.3084 12 21 12ZM21 21C19.3458 21 18 19.6542 18 18C18 16.3458 19.3458 15 21 15C22.6542 15 24 16.3458 24 18C24 19.6542 22.6542 21 21 21Z" fill="black"/>
</svg>
