<svg width="145" height="144" viewBox="0 0 145 144" fill="none" xmlns="http://www.w3.org/2000/svg">
<path d="M73.3125 11.1151C73.0745 11.1049 72.8653 11.043 72.7503 10.9453L72.7752 10.3638C72.8379 10.4459 73.0202 10.5199 73.2052 10.5279C73.7207 10.55 73.8533 10.2378 73.8822 9.5637L74.2312 1.42139L74.9318 1.45142L74.5759 9.75235C74.5323 10.7701 74.0659 11.1474 73.3125 11.1151Z" fill="black"/>
<path d="M80.3042 11.6712C78.91 11.4254 78.2254 10.2031 78.8962 6.39857C79.5692 2.581 80.6282 1.67953 82.0223 1.92532C83.4425 2.1757 84.1271 3.398 83.4564 7.20254C82.7857 11.0071 81.7243 11.9216 80.3042 11.6712ZM80.4121 11.0588C81.6759 11.2816 82.3003 9.64526 82.7528 7.0785C83.2099 4.48568 83.1782 2.76051 81.9144 2.53769C80.6636 2.31718 80.0546 3.94282 79.5997 6.52261C79.1403 9.12846 79.1743 10.8406 80.4121 11.0588Z" fill="black"/>
<path d="M88.9095 13.3824L91.6902 4.14712L92.3616 4.34928L89.581 13.5845L88.9095 13.3824Z" fill="black"/>
<path d="M92.281 14.2933L96.1139 5.44284L96.9273 5.79512L96.194 14.5462L96.2547 14.5725L97.5505 11.4139L99.5011 6.90977L100.12 7.17792L96.2874 16.0284L95.4618 15.6709L96.2089 6.95459L96.1361 6.92304L94.8929 9.96019L92.9001 14.5615L92.281 14.2933Z" fill="black"/>
<path d="M106.443 21.7304C105.308 20.8842 105.246 19.4846 107.556 16.3876C109.873 13.28 111.224 12.9508 112.359 13.7971C113.515 14.6591 113.577 16.0587 111.268 19.1557C108.958 22.2527 107.599 22.5925 106.443 21.7304ZM106.815 21.2319C107.844 21.9991 109.137 20.818 110.695 18.7286C112.269 16.618 113.016 15.0627 111.987 14.2955C110.969 13.5363 109.694 14.7147 108.128 16.8147C106.547 18.9359 105.807 20.4806 106.815 21.2319Z" fill="black"/>
<path d="M114.938 28.7739C113.866 27.6388 114.242 26.2832 115.714 24.8935L120.476 20.3973L120.948 20.8975L116.206 25.3755C114.782 26.7198 114.756 27.6362 115.41 28.3288C116.082 29.0407 117.008 29.0392 118.413 27.713L123.155 23.2351L123.618 23.7257L118.857 28.2218C117.346 29.6479 115.983 29.8802 114.938 28.7739Z" fill="black"/>
<path d="M120.512 34.7605L128.507 29.3662L129.558 30.9236C130.386 32.1519 130.183 33.2465 128.67 34.2677C127.759 34.8818 126.839 35.0557 126.169 34.6301L126.092 34.6819C126.305 35.3045 125.993 35.8824 125.006 36.5483L123.547 37.5325C123.284 37.71 123.028 37.8986 122.798 38.1494L122.421 37.5901C122.614 37.3321 122.888 37.1471 123.195 36.94L124.621 35.978C125.652 35.2825 125.737 34.7462 125.382 34.2198L124.494 32.9037L120.896 35.3308L120.512 34.7605ZM124.987 32.5707L125.675 33.5907C126.29 34.501 127.239 34.371 128.237 33.6976C129.257 33.0095 129.727 32.262 129.024 31.2201L128.387 30.2769L124.987 32.5707Z" fill="black"/>
<path d="M127.897 47.647C127.377 46.3162 128.111 45.1059 131.672 43.7141C135.271 42.308 136.587 42.7312 137.119 44.0572C137.729 45.5804 136.77 46.5088 134.899 47.3539L134.648 46.7131C136.375 45.8964 136.911 45.2324 136.545 44.2959C136.082 43.1129 134.372 43.4261 131.933 44.3796C129.48 45.3379 128.023 46.2623 128.481 47.433C128.871 48.4311 129.824 48.4706 131.543 47.9266L131.794 48.5674C129.33 49.388 128.364 48.8423 127.897 47.647Z" fill="black"/>
<path d="M131.293 57.7708C131.02 56.3817 131.913 55.3027 135.704 54.5577C139.508 53.8101 140.73 54.4732 141.003 55.8623C141.281 57.2773 140.388 58.3563 136.597 59.1013C132.806 59.8464 131.571 59.1858 131.293 57.7708ZM131.903 57.6509C132.151 58.9101 133.902 58.903 136.459 58.4003C139.043 57.8926 140.641 57.2414 140.393 55.9822C140.148 54.7359 138.412 54.7535 135.842 55.2587C133.246 55.769 131.661 56.4176 131.903 57.6509Z" fill="black"/>
<path d="M133.021 66.571L142.666 66.5302L142.671 67.8929L134.488 69.2902L134.488 69.3167L142.683 70.6448L142.689 72.0207L133.044 72.0615L133.041 71.3867L137.989 71.3658L141.959 71.3887L141.958 71.2961L133.035 69.7859L133.031 68.8466L141.941 67.261L141.941 67.1816L137.972 67.2248L133.024 67.2457L133.021 66.571Z" fill="black"/>
<path d="M132.867 78.9528L142.325 80.845L142.057 82.1812L133.76 81.9107L133.755 81.9367L141.518 84.8796L141.248 86.2288L131.79 84.3366L131.923 83.6749L136.775 84.6457L140.659 85.4634L140.677 85.3726L132.237 82.1052L132.421 81.1841L141.469 81.4158L141.484 81.3379L137.587 80.5852L132.735 79.6144L132.867 78.9528Z" fill="black"/>
<path d="M129.235 92.9472C129.821 91.5004 131.21 91.2785 133.086 92.0392L139.155 94.5001L138.897 95.1376L132.852 92.6866C131.038 91.9509 130.193 92.308 129.835 93.1908C129.467 94.0981 129.854 94.9401 131.644 95.666L137.689 98.1169L137.435 98.7422L131.366 96.2813C129.441 95.5008 128.663 94.3571 129.235 92.9472Z" fill="black"/>
<path d="M126.125 100.544L134.302 105.66L133.831 106.411L125.289 104.375L125.254 104.431L128.183 106.186L132.344 108.789L131.986 109.361L123.81 104.246L124.287 103.483L132.793 105.527L132.835 105.46L130.018 103.776L125.767 101.116L126.125 100.544Z" fill="black"/>
<path d="M120.236 109.368L127.769 115.391L127.331 115.939L119.799 109.915L120.236 109.368Z" fill="black"/>
<path d="M117.224 112.974L123.726 119.211L124.953 117.931L125.411 118.371L122.462 121.445L122.004 121.006L123.241 119.717L116.738 113.48L117.224 112.974Z" fill="black"/>
<path d="M111.555 118.456L114.026 121.528L119.239 124.653L118.652 125.125L114.293 122.366L114.252 122.399L116.002 127.256L115.415 127.729L113.48 121.967L111.009 118.895L111.555 118.456Z" fill="black"/>
<path d="M87.6194 130.009L90.3055 140.192L89.6914 140.354L87.0054 130.171L87.6194 130.009Z" fill="black"/>
<path d="M68.458 132.749C68.6953 132.769 68.9019 132.839 69.0129 132.941L68.9649 133.521C68.9056 133.437 68.7264 133.355 68.5418 133.34C68.0276 133.298 67.8828 133.604 67.8271 134.277L67.1551 142.399L66.4563 142.341L67.1414 134.061C67.2254 133.045 67.7064 132.687 68.458 132.749Z" fill="black"/>
<path d="M61.5264 131.921C62.9096 132.222 63.5452 133.47 62.7238 137.245C61.8997 141.033 60.8057 141.892 59.4224 141.591C58.0133 141.284 57.3778 140.035 58.1991 136.261C59.0205 132.486 60.1173 131.614 61.5264 131.921ZM61.3942 132.528C60.1402 132.255 59.4513 133.866 58.8972 136.412C58.3375 138.985 58.3006 140.71 59.5546 140.983C60.7957 141.253 61.4688 139.653 62.0257 137.093C62.5883 134.508 62.6223 132.795 61.3942 132.528Z" fill="black"/>
<path d="M52.9832 129.864L49.8349 138.981L49.1721 138.752L52.3204 129.635L52.9832 129.864Z" fill="black"/>
<path d="M49.6377 128.813L45.4523 137.503L44.6536 137.118L45.7381 128.403L45.6785 128.375L44.2568 131.479L42.1267 135.901L41.5188 135.608L45.7043 126.919L46.5148 127.309L45.4181 135.988L45.4896 136.023L46.8539 133.038L49.0299 128.521L49.6377 128.813Z" fill="black"/>
<path d="M35.7932 120.821C36.8936 121.712 36.9001 123.113 34.4698 126.116C32.0311 129.129 30.6679 129.404 29.5675 128.514C28.4466 127.606 28.44 126.206 30.8703 123.203C33.3006 120.2 34.6722 119.914 35.7932 120.821ZM35.402 121.304C34.4044 120.497 33.0653 121.626 31.4257 123.652C29.7694 125.699 28.9611 127.223 29.9587 128.03C30.946 128.829 32.2665 127.702 33.9144 125.666C35.5791 123.609 36.379 122.095 35.402 121.304Z" fill="black"/>
<path d="M27.586 113.449C28.6121 114.625 28.183 115.965 26.6574 117.295L21.7218 121.6L21.2696 121.081L26.1853 116.794C27.661 115.507 27.7235 114.593 27.0974 113.875C26.4539 113.137 25.528 113.102 24.0722 114.371L19.1565 118.658L18.7131 118.15L23.6487 113.845C25.2142 112.48 26.586 112.302 27.586 113.449Z" fill="black"/>
<path d="M22.2578 107.253L14.0553 112.326L13.067 110.728C12.2876 109.468 12.5339 108.382 14.0866 107.422C15.0205 106.844 15.9467 106.707 16.5995 107.159L16.6783 107.11C16.4905 106.48 16.8255 105.915 17.8382 105.288L19.3347 104.363C19.6047 104.196 19.8678 104.017 20.1074 103.776L20.4623 104.35C20.2592 104.6 19.9779 104.774 19.6628 104.969L18.2001 105.873C17.1424 106.528 17.0362 107.06 17.3702 107.6L18.2054 108.95L21.8959 106.668L22.2578 107.253ZM17.699 109.263L17.0518 108.217C16.4742 107.283 15.5201 107.375 14.4962 108.009C13.4498 108.656 12.9513 109.384 13.6125 110.453L14.211 111.421L17.699 109.263Z" fill="black"/>
<path d="M15.3913 94.0865C15.8579 95.437 15.0759 96.6171 11.462 97.8657C7.81055 99.1273 6.51251 98.652 6.03338 97.3058C5.48512 95.7595 6.47957 94.87 8.38325 94.1003L8.60792 94.7505C6.85043 95.4977 6.28842 96.1398 6.61678 97.0902C7.03156 98.2906 8.7527 98.0459 11.2286 97.1904C13.7171 96.3306 15.2097 95.465 14.7993 94.277C14.4493 93.2641 13.4987 93.1867 11.7591 93.6617L11.5345 93.0115C14.0286 92.2897 14.9722 92.8735 15.3913 94.0865Z" fill="black"/>
<path d="M12.4053 83.8532C12.6233 85.2519 11.6879 86.2949 7.87081 86.8899C4.04062 87.4869 2.84524 86.7761 2.6272 85.3774C2.40508 83.9525 3.34048 82.9096 7.1576 82.3146C10.9747 81.7195 12.1832 82.4283 12.4053 83.8532ZM11.7909 83.949C11.5932 82.6809 9.84288 82.619 7.26764 83.0205C4.66625 83.426 3.04393 84.0136 3.2416 85.2816C3.43722 86.5366 5.17245 86.5874 7.76077 86.184C10.3752 85.7764 11.9845 85.1908 11.7909 83.949Z" fill="black"/>
<path d="M11.0213 74.9201L1.38255 74.5774L1.43097 73.2155L9.66371 72.1447L9.66465 72.1182L1.52876 70.4654L1.57765 69.0903L11.2164 69.433L11.1924 70.1073L6.24742 69.9315L2.28229 69.7508L2.279 69.8434L11.1355 71.7072L11.1021 72.6459L2.13561 73.876L2.13279 73.9553L6.10027 74.0699L11.0452 74.2458L11.0213 74.9201Z" fill="black"/>
<path d="M11.6658 62.5763L2.29241 60.3041L2.61344 58.9798L10.8935 59.5847L10.8997 59.559L3.26173 56.3054L3.58587 54.9681L12.9592 57.2403L12.8003 57.896L7.99144 56.7303L4.14345 55.7567L4.12163 55.8467L12.4231 59.4518L12.2018 60.3647L3.17101 59.7684L3.15231 59.8455L7.01589 60.7548L11.8247 61.9205L11.6658 62.5763Z" fill="black"/>
<path d="M15.854 48.7559C15.2099 50.178 13.813 50.3441 11.9691 49.509L6.00348 46.807L6.28732 46.1803L12.2288 48.8714C14.0124 49.6792 14.8704 49.3562 15.2635 48.4884C15.6674 47.5966 15.3147 46.7398 13.5552 45.9428L7.61373 43.2518L7.89211 42.6372L13.8577 45.3391C15.7498 46.1961 16.4817 47.37 15.854 48.7559Z" fill="black"/>
<path d="M19.2603 41.297L11.2929 35.8616L11.7925 35.1294L20.2476 37.5022L20.2849 37.4475L17.4279 35.5786L13.3731 32.8124L13.7534 32.255L21.7208 37.6904L21.2137 38.4336L12.7954 36.0538L12.7507 36.1194L15.4984 37.9138L19.6405 40.7396L19.2603 41.297Z" fill="black"/>
<path d="M25.4982 32.7079L18.2101 26.3908L18.6694 25.8609L25.9575 32.1781L25.4982 32.7079Z" fill="black"/>
<path d="M28.6498 29.2252L22.3992 22.7363L21.1224 23.9662L20.6818 23.5089L23.75 20.5534L24.1906 21.0107L22.9042 22.2498L29.1548 28.7387L28.6498 29.2252Z" fill="black"/>
<path d="M34.5336 23.9692L32.1863 20.8016L27.1012 17.4726L27.7071 17.0236L31.953 19.9535L31.9956 19.922L30.4389 14.9992L31.0448 14.5502L32.7497 20.3841L35.097 23.5517L34.5336 23.9692Z" fill="black"/>
<path d="M52.662 15.1444L49.2814 5.17056L49.8828 4.96671L53.2634 14.9406L52.662 15.1444Z" fill="black"/>
</svg>
