<svg width="17" height="17" viewBox="0 0 17 17" fill="none" xmlns="http://www.w3.org/2000/svg">
<g clip-path="url(#clip0_6179_1183)">
<path d="M3.46419 11.3005C5.14094 13.3048 7.15938 14.8829 9.46315 15.9996C10.3403 16.4153 11.5133 16.9084 12.8202 16.993C12.9012 16.9965 12.9787 17 13.0597 17C13.9368 17 14.6414 16.6971 15.2155 16.0736C15.2191 16.07 15.2261 16.063 15.2296 16.0559C15.4339 15.8094 15.6664 15.5874 15.9095 15.3514C16.075 15.1929 16.2441 15.0274 16.4062 14.8583C17.1565 14.0763 17.1565 13.0829 16.3991 12.3255L14.2821 10.2085C13.9227 9.83506 13.493 9.6378 13.0421 9.6378C12.5912 9.6378 12.1579 9.83506 11.7881 10.2049L10.527 11.466C10.4107 11.3991 10.291 11.3392 10.1782 11.2828C10.0373 11.2124 9.907 11.1455 9.79075 11.0715C8.64239 10.3423 7.59971 9.39121 6.60281 8.16888C6.09908 7.53129 5.76092 6.99586 5.5249 6.44986C5.85603 6.15044 6.16601 5.83693 6.46543 5.53046C6.57111 5.42126 6.68031 5.31206 6.78951 5.20286C7.16995 4.82242 7.37426 4.3821 7.37426 3.93473C7.37426 3.48736 7.17347 3.04704 6.78951 2.6666L5.73978 1.61687C5.61649 1.49358 5.50025 1.37381 5.38048 1.25052C5.14799 1.01098 4.90493 0.764401 4.66539 0.542478C4.30257 0.186697 3.87633 0 3.42544 0C2.97807 0 2.54832 0.186697 2.1714 0.546001L0.853954 1.86345C0.374882 2.34252 0.103643 2.92375 0.0472818 3.59656C-0.0196473 4.43846 0.135346 5.3332 0.536921 6.41463C1.15337 8.08786 2.08334 9.64132 3.46419 11.3005ZM0.906793 3.67053C0.949064 3.20203 1.12872 2.81102 1.46688 2.47286L2.77729 1.16245C2.9816 0.965189 3.20704 0.863034 3.42544 0.863034C3.64032 0.863034 3.85872 0.965189 4.05951 1.1695C4.29552 1.3879 4.51744 1.61687 4.75698 1.85993C4.87675 1.98322 5.00004 2.10651 5.12333 2.23332L6.17306 3.28305C6.39146 3.50145 6.50418 3.72337 6.50418 3.94177C6.50418 4.16017 6.39146 4.3821 6.17306 4.6005C6.06386 4.7097 5.95466 4.82242 5.84546 4.93162C5.51786 5.26274 5.21139 5.57625 4.87323 5.87567C4.86618 5.88272 4.86266 5.88624 4.85561 5.89329C4.56324 6.18566 4.60903 6.46395 4.67948 6.6753C4.68301 6.68587 4.68653 6.69291 4.69005 6.70348C4.96129 7.35516 5.33821 7.97513 5.92648 8.71488C6.98325 10.0182 8.09639 11.0292 9.32225 11.8077C9.47372 11.9063 9.63576 11.9838 9.78723 12.0613C9.92813 12.1318 10.0585 12.1987 10.1747 12.2727C10.1888 12.2797 10.1994 12.2868 10.2135 12.2938C10.3297 12.3537 10.4424 12.3819 10.5552 12.3819C10.837 12.3819 11.0201 12.2022 11.08 12.1424L12.3975 10.8249C12.6018 10.6206 12.8237 10.5114 13.0421 10.5114C13.3098 10.5114 13.5282 10.677 13.6656 10.8249L15.7897 12.9455C16.2124 13.3682 16.2089 13.8262 15.7792 14.2735C15.6312 14.432 15.4762 14.5835 15.3106 14.742C15.0641 14.9816 14.8069 15.2281 14.5744 15.5064C14.1693 15.9432 13.6867 16.1475 13.0632 16.1475C13.0034 16.1475 12.9399 16.144 12.8801 16.1405C11.7247 16.0665 10.6503 15.6156 9.84359 15.2317C7.65254 14.1714 5.72921 12.6672 4.13348 10.758C2.81956 9.17634 1.93539 7.7039 1.35064 6.12578C0.987812 5.15707 0.850431 4.37857 0.906793 3.67053Z" fill="#698827"/>
</g>
<defs>
<clipPath id="clip0_6179_1183">
<rect width="17" height="17" fill="white"/>
</clipPath>
</defs>
</svg>
