<svg xmlns="http://www.w3.org/2000/svg" xmlns:xlink="http://www.w3.org/1999/xlink" width="500" zoomAndPan="magnify" viewBox="0 0 375 374.999991" height="500" preserveAspectRatio="xMidYMid meet" version="1.0"><defs><clipPath id="fb5c3a4787"><path d="M 91.3125 11.191406 L 363.691406 11.191406 L 363.691406 363.691406 L 91.3125 363.691406 Z M 91.3125 11.191406 " clip-rule="nonzero"/></clipPath><clipPath id="36683b7b00"><path d="M 11.191406 44 L 95 44 L 95 312 L 11.191406 312 Z M 11.191406 44 " clip-rule="nonzero"/></clipPath></defs><path fill="#bef746" d="M 170.800781 151.207031 C 174.289062 149.597656 175.8125 145.46875 174.203125 141.980469 C 172.59375 138.496094 168.464844 136.972656 164.980469 138.578125 C 155.921875 142.753906 148.207031 149.359375 142.664062 157.675781 C 136.769531 166.519531 133.65625 176.832031 133.65625 187.5 C 133.65625 207.003906 144.242188 225.03125 161.289062 234.546875 C 162.359375 235.144531 163.523438 235.429688 164.671875 235.429688 C 167.109375 235.429688 169.472656 234.144531 170.746094 231.863281 C 172.617188 228.511719 171.417969 224.277344 168.066406 222.402344 C 155.417969 215.34375 147.558594 201.96875 147.558594 187.5 C 147.558594 179.585938 149.867188 171.941406 154.234375 165.386719 C 158.351562 159.207031 164.082031 154.304688 170.800781 151.207031 " fill-opacity="1" fill-rule="nonzero"/><path fill="#bef746" d="M 137.949219 108.515625 C 117.832031 121.160156 103.417969 140.722656 97.367188 163.597656 C 95.3125 171.359375 94.269531 179.402344 94.269531 187.5 C 94.269531 214.96875 106.304688 240.910156 127.285156 258.675781 C 128.589844 259.78125 130.1875 260.324219 131.773438 260.324219 C 133.746094 260.324219 135.707031 259.488281 137.082031 257.863281 C 139.5625 254.933594 139.199219 250.546875 136.269531 248.0625 C 118.414062 232.945312 108.175781 210.871094 108.175781 187.5 C 108.175781 180.601562 109.0625 173.753906 110.808594 167.152344 C 115.957031 147.695312 128.222656 131.054688 145.351562 120.289062 C 148.601562 118.246094 149.582031 113.953125 147.535156 110.703125 C 145.492188 107.449219 141.203125 106.472656 137.949219 108.515625 " fill-opacity="1" fill-rule="nonzero"/><path fill="#bef746" d="M 110.789062 77.457031 C 102.964844 82.921875 95.699219 89.242188 89.199219 96.242188 C 66.09375 121.121094 53.371094 153.53125 53.371094 187.5 C 53.371094 223.914062 67.714844 257.984375 93.757812 283.433594 C 95.109375 284.757812 96.863281 285.414062 98.617188 285.414062 C 100.421875 285.414062 102.226562 284.714844 103.589844 283.324219 C 106.273438 280.578125 106.222656 276.175781 103.476562 273.492188 C 80.132812 250.675781 67.273438 220.140625 67.273438 187.5 C 67.273438 157.050781 78.679688 128.003906 99.386719 105.707031 C 105.21875 99.425781 111.734375 93.757812 118.75 88.859375 C 121.898438 86.660156 122.667969 82.328125 120.46875 79.175781 C 118.273438 76.027344 113.9375 75.261719 110.789062 77.457031 " fill-opacity="1" fill-rule="nonzero"/><g clip-path="url(#fb5c3a4787)"><path fill="#bef746" d="M 287.5 257.003906 C 274.679688 248.226562 252.890625 247.949219 233.667969 247.703125 C 221.996094 247.554688 210.964844 247.410156 204.96875 245.414062 C 198.601562 243.054688 198.800781 241.160156 200.777344 232.746094 C 201.914062 227.890625 203.207031 222.394531 201.433594 216.953125 C 201.421875 216.917969 201.410156 216.886719 201.398438 216.855469 C 200.289062 213.617188 198.300781 210.964844 196.542969 208.625 C 195.789062 207.617188 194.722656 206.195312 194.246094 205.292969 C 194.597656 204.957031 195.25 204.433594 196.402344 203.753906 C 200.542969 201.316406 203.882812 201.40625 204.441406 201.441406 C 208.003906 202.066406 211.324219 199.832031 212.234375 196.324219 C 213.152344 192.792969 211.050781 189.132812 207.59375 187.96875 C 205.644531 187.289062 200.101562 184.601562 197.769531 180.378906 C 197.585938 180.027344 197.460938 179.742188 197.371094 179.515625 C 197.886719 179.101562 198.636719 178.574219 199.238281 178.152344 C 202.816406 175.632812 208.183594 171.855469 210.527344 163.839844 C 211.246094 162.085938 211.9375 158.960938 210.574219 154.777344 C 208.800781 149.339844 204.179688 143.863281 196.445312 138.03125 C 191.496094 134.300781 190.789062 132.265625 190.707031 131.933594 C 190.863281 131.535156 191.808594 129.992188 197.3125 126.929688 C 203.3125 123.589844 223.726562 111.367188 234.578125 94.34375 C 239.644531 86.390625 239.867188 79.558594 239.953125 76.988281 C 239.953125 76.867188 239.957031 76.757812 239.960938 76.660156 C 240.28125 74.28125 240.449219 71.613281 240.644531 68.53125 C 241.210938 59.503906 241.96875 47.570312 247.3125 36.507812 C 307.351562 60.375 349.90625 119.058594 349.90625 187.5 C 349.90625 226.46875 336.109375 262.265625 313.148438 290.285156 C 304.835938 270.597656 292.855469 260.671875 287.5 257.003906 Z M 312.171875 62.832031 C 278.871094 29.53125 234.597656 11.191406 187.5 11.191406 C 162.125 11.191406 137.632812 16.464844 114.703125 26.875 C 111.207031 28.460938 109.660156 32.582031 111.246094 36.078125 C 112.835938 39.574219 116.953125 41.121094 120.449219 39.535156 C 141.5625 29.953125 164.121094 25.09375 187.5 25.09375 C 203.695312 25.09375 219.339844 27.488281 234.109375 31.921875 C 228.199219 44.984375 227.355469 58.308594 226.765625 67.660156 C 226.585938 70.539062 226.425781 73.023438 226.164062 74.941406 C 226.089844 75.492188 226.074219 76 226.054688 76.535156 C 225.996094 78.351562 225.871094 82.132812 222.851562 86.871094 C 215.625 98.210938 201.421875 108.722656 190.546875 114.78125 C 184.0625 118.390625 177.363281 123.136719 176.824219 130.972656 C 176.394531 137.160156 180.074219 143.101562 188.074219 149.132812 C 195.636719 154.835938 197.117188 158.304688 197.390625 159.230469 C 197.34375 159.375 197.300781 159.523438 197.257812 159.667969 C 196.355469 163.039062 194.382812 164.566406 191.238281 166.78125 C 187.390625 169.484375 179.390625 175.113281 185.453125 186.835938 C 185.476562 186.878906 185.496094 186.921875 185.519531 186.960938 C 186.535156 188.828125 187.753906 190.480469 189.074219 191.933594 C 184.046875 194.960938 181.199219 198.449219 180.371094 202.597656 C 179.164062 208.628906 182.78125 213.449219 185.421875 216.96875 C 186.597656 218.535156 187.8125 220.15625 188.226562 221.308594 C 188.765625 223.0625 187.988281 226.371094 187.242188 229.570312 C 185.417969 237.332031 182.027344 251.789062 200.253906 258.496094 C 200.3125 258.515625 200.367188 258.535156 200.425781 258.554688 C 208.484375 261.285156 220.074219 261.433594 233.492188 261.605469 C 250.742188 261.828125 270.292969 262.074219 279.644531 268.476562 C 284.433594 271.753906 295.84375 281.367188 302.671875 301.890625 C 273.230469 331.527344 232.472656 349.90625 187.5 349.90625 C 157.195312 349.90625 127.636719 341.507812 102.019531 325.621094 C 98.757812 323.59375 94.472656 324.597656 92.449219 327.863281 C 90.425781 331.125 91.429688 335.410156 94.691406 337.433594 C 122.511719 354.691406 154.605469 363.8125 187.5 363.8125 C 234.597656 363.8125 278.871094 345.472656 312.171875 312.171875 C 345.472656 278.871094 363.8125 234.597656 363.8125 187.5 C 363.8125 140.40625 345.472656 96.128906 312.171875 62.832031 " fill-opacity="1" fill-rule="nonzero"/></g><g clip-path="url(#36683b7b00)"><path fill="#bef746" d="M 25.566406 200.007812 C 25.253906 195.878906 25.09375 191.671875 25.09375 187.5 C 25.09375 136.101562 49.835938 87.1875 91.273438 56.65625 C 94.363281 54.378906 95.023438 50.027344 92.746094 46.9375 C 90.46875 43.84375 86.117188 43.183594 83.027344 45.460938 C 61.238281 61.515625 43.167969 82.675781 30.773438 106.660156 C 17.960938 131.453125 11.191406 159.40625 11.191406 187.5 C 11.191406 192.023438 11.363281 196.585938 11.703125 201.0625 C 14.765625 241.289062 31.796875 279.59375 59.660156 308.921875 C 61.027344 310.359375 62.863281 311.085938 64.703125 311.085938 C 66.421875 311.085938 68.144531 310.449219 69.488281 309.171875 C 72.273438 306.527344 72.386719 302.125 69.742188 299.34375 C 44.074219 272.328125 28.386719 237.050781 25.566406 200.007812 " fill-opacity="1" fill-rule="nonzero"/></g></svg>