<svg width="60" height="60" viewBox="0 0 60 60" fill="none" xmlns="http://www.w3.org/2000/svg">
<rect x="0.5" y="0.5" width="59" height="59" rx="29.5" stroke="black"/>
<path d="M21.911 38.0894C21.4229 37.6013 21.4229 36.8098 21.911 36.3217L36.0777 22.155C36.5659 21.6668 37.3572 21.6668 37.8454 22.155C38.3336 22.6432 38.3336 23.4347 37.8454 23.9228L23.6788 38.0894C23.1906 38.5776 22.3992 38.5776 21.911 38.0894Z" fill="black"/>
<path d="M20.7114 23.0388C20.7114 22.3484 21.2711 21.7888 21.9614 21.7888L36.9615 21.7888C37.6518 21.7888 38.2115 22.3484 38.2115 23.0388L38.2115 38.0388C38.2115 38.7292 37.6518 39.2888 36.9615 39.2888C36.271 39.2888 35.7115 38.7292 35.7115 38.0388L35.7115 24.2888L21.9614 24.2888C21.2711 24.2888 20.7114 23.7293 20.7114 23.0388Z" fill="black"/>
</svg>
