<svg width="20" height="20" viewBox="0 0 20 20" fill="none" xmlns="http://www.w3.org/2000/svg">
<rect width="20" height="20" rx="10" fill="#BEF746"/>
<path d="M6.35989 13.6402C6.14021 13.4205 6.14021 13.0644 6.35989 12.8447L12.7349 6.46967C12.9546 6.25 13.3107 6.25 13.5304 6.46967C13.75 6.68935 13.75 7.04552 13.5304 7.2652L7.15538 13.6402C6.93571 13.8599 6.57955 13.8599 6.35989 13.6402Z" fill="black"/>
<path d="M5.82007 6.8674C5.82007 6.55675 6.0719 6.3049 6.38257 6.3049L13.1326 6.3049C13.4432 6.3049 13.6951 6.55675 13.6951 6.8674L13.6951 13.6174C13.6951 13.9281 13.4432 14.1799 13.1326 14.1799C12.8219 14.1799 12.5701 13.9281 12.5701 13.6174L12.5701 7.4299L6.38257 7.4299C6.0719 7.4299 5.82007 7.17813 5.82007 6.8674Z" fill="black"/>
</svg>
